<?xml version="1.0" encoding="utf-8"?>
<!-- Generator: Adobe Illustrator 18.1.1, SVG Export Plug-In . SVG Version: 6.00 Build 0)  -->
<svg version="1.1" id="Layer_1" xmlns="http://www.w3.org/2000/svg" xmlns:xlink="http://www.w3.org/1999/xlink" x="0px" y="0px"
	 width="24px" height="60px" viewBox="0 0 24 60" enable-background="new 0 0 24 60" xml:space="preserve">
<path opacity="0.3" fill-rule="evenodd" clip-rule="evenodd" fill="#FFFFFF" d="M12.5,46c0.3,0,0.5,0.2,0.5,0.5
	c0,0.3-0.2,0.5-0.5,0.5c-0.3,0-0.5-0.2-0.5-0.5C12,46.2,12.2,46,12.5,46z"/>
<path opacity="0.3" fill-rule="evenodd" clip-rule="evenodd" fill="#FFFFFF" d="M15.5,46c0.3,0,0.5,0.2,0.5,0.5
	c0,0.3-0.2,0.5-0.5,0.5c-0.3,0-0.5-0.2-0.5-0.5C15,46.2,15.2,46,15.5,46z"/>
<path opacity="0.3" fill-rule="evenodd" clip-rule="evenodd" fill="#FFFFFF" d="M9.5,46c0.3,0,0.5,0.2,0.5,0.5
	c0,0.3-0.2,0.5-0.5,0.5C9.2,47,9,46.8,9,46.5C9,46.2,9.2,46,9.5,46z"/>
<path opacity="0.3" fill-rule="evenodd" clip-rule="evenodd" fill="#FFFFFF" d="M12.5,49c0.3,0,0.5,0.2,0.5,0.5S12.8,50,12.5,50
	c-0.3,0-0.5-0.2-0.5-0.5S12.2,49,12.5,49z"/>
<path opacity="0.3" fill-rule="evenodd" clip-rule="evenodd" fill="#FFFFFF" d="M15.5,49c0.3,0,0.5,0.2,0.5,0.5S15.8,50,15.5,50
	c-0.3,0-0.5-0.2-0.5-0.5S15.2,49,15.5,49z"/>
<path opacity="0.3" fill-rule="evenodd" clip-rule="evenodd" fill="#FFFFFF" d="M9.5,49c0.3,0,0.5,0.2,0.5,0.5S9.8,50,9.5,50
	C9.2,50,9,49.8,9,49.5S9.2,49,9.5,49z"/>
<path opacity="0.3" fill-rule="evenodd" clip-rule="evenodd" fill="#FFFFFF" d="M12.5,52c0.3,0,0.5,0.2,0.5,0.5S12.8,53,12.5,53
	c-0.3,0-0.5-0.2-0.5-0.5S12.2,52,12.5,52z"/>
<path opacity="0.3" fill-rule="evenodd" clip-rule="evenodd" fill="#FFFFFF" d="M15.5,52c0.3,0,0.5,0.2,0.5,0.5S15.8,53,15.5,53
	c-0.3,0-0.5-0.2-0.5-0.5S15.2,52,15.5,52z"/>
<path opacity="0.3" fill-rule="evenodd" clip-rule="evenodd" fill="#FFFFFF" d="M9.5,52c0.3,0,0.5,0.2,0.5,0.5S9.8,53,9.5,53
	C9.2,53,9,52.8,9,52.5S9.2,52,9.5,52z"/>
<path fill-rule="evenodd" clip-rule="evenodd" d="M11.5,45c0.3,0,0.5,0.2,0.5,0.5c0,0.3-0.2,0.5-0.5,0.5c-0.3,0-0.5-0.2-0.5-0.5
	C11,45.2,11.2,45,11.5,45z"/>
<path fill-rule="evenodd" clip-rule="evenodd" d="M14.5,45c0.3,0,0.5,0.2,0.5,0.5c0,0.3-0.2,0.5-0.5,0.5c-0.3,0-0.5-0.2-0.5-0.5
	C14,45.2,14.2,45,14.5,45z"/>
<path fill-rule="evenodd" clip-rule="evenodd" d="M8.5,45C8.8,45,9,45.2,9,45.5C9,45.8,8.8,46,8.5,46C8.2,46,8,45.8,8,45.5
	C8,45.2,8.2,45,8.5,45z"/>
<path fill-rule="evenodd" clip-rule="evenodd" d="M11.5,48c0.3,0,0.5,0.2,0.5,0.5c0,0.3-0.2,0.5-0.5,0.5c-0.3,0-0.5-0.2-0.5-0.5
	C11,48.2,11.2,48,11.5,48z"/>
<path fill-rule="evenodd" clip-rule="evenodd" d="M14.5,48c0.3,0,0.5,0.2,0.5,0.5c0,0.3-0.2,0.5-0.5,0.5c-0.3,0-0.5-0.2-0.5-0.5
	C14,48.2,14.2,48,14.5,48z"/>
<path fill-rule="evenodd" clip-rule="evenodd" d="M8.5,48C8.8,48,9,48.2,9,48.5C9,48.8,8.8,49,8.5,49C8.2,49,8,48.8,8,48.5
	C8,48.2,8.2,48,8.5,48z"/>
<path fill-rule="evenodd" clip-rule="evenodd" d="M11.5,51c0.3,0,0.5,0.2,0.5,0.5S11.8,52,11.5,52c-0.3,0-0.5-0.2-0.5-0.5
	S11.2,51,11.5,51z"/>
<path fill-rule="evenodd" clip-rule="evenodd" d="M14.5,51c0.3,0,0.5,0.2,0.5,0.5S14.8,52,14.5,52c-0.3,0-0.5-0.2-0.5-0.5
	S14.2,51,14.5,51z"/>
<path fill-rule="evenodd" clip-rule="evenodd" d="M8.5,51C8.8,51,9,51.2,9,51.5S8.8,52,8.5,52C8.2,52,8,51.8,8,51.5S8.2,51,8.5,51z"
	/>
<path fill="#FFFFFF" d="M10.6,10.8l-0.2,0.6h1.4c-0.9,3.2-1.5,5.3-1.6,5.8C9.7,19.4,9.3,20,8.6,20c-0.2,0-0.3-0.1-0.3-0.2
	c0-0.2,0.3-0.3,0.3-0.6c0-0.4-0.4-0.7-0.9-0.7c-0.5,0-0.9,0.4-0.9,0.8c0,0.7,0.8,1.2,1.8,1.2c0.8,0,1.5-0.2,2.1-0.7
	c0.7-0.5,1.1-1.2,1.7-2.5c0.5-1.2,0.7-1.9,1.7-5.8h1.6l0.2-0.6h-1.7l0.3-1c0.4-1.4,1.1-2.3,1.7-2.3c0.2,0,0.3,0.1,0.3,0.2
	c0,0.2-0.3,0.3-0.3,0.6c0,0.4,0.4,0.7,0.9,0.7c0.6,0,0.9-0.3,0.9-0.8c0-0.7-0.7-1.2-1.8-1.2c-1.3,0-2.1,0.4-2.7,1
	c-0.7,0.7-1.1,1.6-1.5,2.7H10.6z"/>
</svg>
